<svg xmlns="http://www.w3.org/2000/svg" width="125.969" height="86.406" viewBox="0 0 125.969 86.406">
  <defs>
    <style>
      .cls-1 {
        fill: #425b00;
        fill-rule: evenodd;
      }
    </style>
  </defs>
  <path id="logotyp" class="cls-1" d="M45.347,67.326v3.513H52.1v4.007H45.347v6.688H41.19V63.318H52.232v4.008H45.347Zm22.395,1.2V81.535h-3.9V80.311A4.876,4.876,0,0,1,59.973,81.9c-3.4,0-6.209-2.993-6.209-6.871s2.806-6.87,6.209-6.87a4.876,4.876,0,0,1,3.871,1.587V68.523h3.9Zm-3.9,6.506A3.093,3.093,0,1,0,60.752,78.2,2.969,2.969,0,0,0,63.844,75.029Zm19.22-6.506V81.535h-3.9V80.311A4.44,4.44,0,0,1,75.451,81.9c-2.624,0-4.859-1.874-4.859-5.387v-7.99h3.9v7.417a2.144,2.144,0,0,0,2.26,2.368c1.429,0,2.416-.833,2.416-2.681v-7.1h3.9ZM98.49,73.546v7.989h-3.9V74.118a2.144,2.144,0,0,0-2.26-2.368c-1.429,0-2.416.833-2.416,2.681v7.1h-3.9V68.523h3.9v1.223a4.44,4.44,0,0,1,3.715-1.587C96.256,68.159,98.49,70.032,98.49,73.546Zm16.1-5.023V81.535h-3.9V80.311a4.874,4.874,0,0,1-3.871,1.588c-3.4,0-6.209-2.993-6.209-6.871s2.806-6.87,6.209-6.87a4.874,4.874,0,0,1,3.871,1.587V68.523h3.9Zm-3.9,6.506A3.093,3.093,0,1,0,107.6,78.2,2.969,2.969,0,0,0,110.689,75.029ZM40.28,103.419l3.585-2.083a3.809,3.809,0,0,0,3.819,2.525c1.975,0,2.468-.781,2.468-1.483,0-1.119-1.039-1.562-3.767-2.316-2.7-.755-5.352-2.056-5.352-5.543,0-3.513,2.962-5.543,6.105-5.543a7.052,7.052,0,0,1,6.651,4.112l-3.507,2.056a3.187,3.187,0,0,0-3.144-2.108c-1.3,0-1.949.651-1.949,1.379,0,0.833.442,1.405,3.274,2.264,2.754,0.833,5.846,1.8,5.846,5.647,0,3.513-2.806,5.6-6.755,5.6C43.736,107.921,41.294,106.1,40.28,103.419Zm22.756,1.015a3.392,3.392,0,0,0,2.494-.989l3.118,1.8a6.588,6.588,0,0,1-5.664,2.681c-4.443,0-7.2-2.993-7.2-6.871A6.666,6.666,0,0,1,62.7,94.181a6.564,6.564,0,0,1,6.6,6.869,7.563,7.563,0,0,1-.156,1.562H59.919A2.956,2.956,0,0,0,63.036,104.434Zm2.39-4.737a2.925,2.925,0,0,0-5.586,0h5.586ZM79.39,94.284v4.424c-1.611-.26-3.9.39-3.9,2.967v5.881H71.6V94.544h3.9v2.317A3.9,3.9,0,0,1,79.39,94.284Zm15.021,0.26L89.6,107.556H85.188L80.382,94.544h4.313l2.7,8.25,2.7-8.25h4.313Zm1.1-3.487A2.338,2.338,0,1,1,97.85,93.4,2.364,2.364,0,0,1,95.512,91.058Zm0.39,3.487h3.9v13.012H95.9V94.544Zm6.06,6.506a6.869,6.869,0,0,1,12.757-3.538l-3.4,1.977a2.691,2.691,0,0,0-2.521-1.457,3.02,3.02,0,0,0,0,6.037,2.664,2.664,0,0,0,2.521-1.457l3.4,1.952a6.631,6.631,0,0,1-5.872,3.357A6.736,6.736,0,0,1,101.962,101.05Zm20.969,3.384a3.392,3.392,0,0,0,2.494-.989l3.118,1.8a6.589,6.589,0,0,1-5.664,2.681c-4.443,0-7.2-2.993-7.2-6.871a6.666,6.666,0,0,1,6.911-6.869,6.565,6.565,0,0,1,6.6,6.869,7.57,7.57,0,0,1-.156,1.562h-9.223A2.957,2.957,0,0,0,122.931,104.434Zm2.39-4.737a2.925,2.925,0,0,0-5.586,0h5.586Zm32.62-58.307V21.512L147.855,32.156H130.769L120.683,21.512V41.39l-8.309,13.153,16.235,8.566,3.444,9.406h14.519l3.443-9.406,16.236-8.566Zm-10.7,18.789-2.969,8.4h-2.312l1.081-5.9h-7.452l1.081,5.9h-2.312l-2.969-8.4-13.571-7.161,6.594-10.438V31l4.817,5.084H149.4L154.215,31V42.581l6.594,10.438Z" transform="translate(-40.281 -21.5)"/>
</svg>
